<svg xmlns="http://www.w3.org/2000/svg" width="24" height="24" viewBox="0 0 25 24" fill="none">
  <path d="M20.95 3.75L4.44995 3.75C4.05213 3.75 3.6706 3.90804 3.38929 4.18934C3.10799 4.47064 2.94995 4.85218 2.94995 5.25L2.94995 19.5C2.95002 19.6278 2.98276 19.7535 3.04506 19.8651C3.10736 19.9768 3.19716 20.0706 3.30593 20.1378C3.41469 20.2049 3.53882 20.2432 3.66652 20.2489C3.79422 20.2546 3.92126 20.2275 4.03558 20.1703L6.69995 18.8381L9.36433 20.1703C9.46852 20.2225 9.58344 20.2496 9.69995 20.2496C9.81647 20.2496 9.93138 20.2225 10.0356 20.1703L12.7 18.8381L15.3643 20.1703C15.4685 20.2225 15.5834 20.2496 15.7 20.2496C15.8165 20.2496 15.9314 20.2225 16.0356 20.1703L18.7 18.8381L21.3643 20.1703C21.4786 20.2275 21.6057 20.2546 21.7334 20.2489C21.8611 20.2432 21.9852 20.2049 22.094 20.1378C22.2027 20.0706 22.2925 19.9768 22.3548 19.8651C22.4171 19.7535 22.4499 19.6278 22.45 19.5L22.45 5.25C22.45 4.85218 22.2919 4.47064 22.0106 4.18934C21.7293 3.90804 21.3478 3.75 20.95 3.75ZM17.2 13.5L8.19995 13.5C8.00104 13.5 7.81027 13.421 7.66962 13.2803C7.52897 13.1397 7.44995 12.9489 7.44995 12.75C7.44995 12.5511 7.52897 12.3603 7.66962 12.2197C7.81027 12.079 8.00104 12 8.19995 12L17.2 12C17.3989 12 17.5896 12.079 17.7303 12.2197C17.8709 12.3603 17.95 12.5511 17.95 12.75C17.95 12.9489 17.8709 13.1397 17.7303 13.2803C17.5896 13.421 17.3989 13.5 17.2 13.5ZM17.2 10.5L8.19995 10.5C8.00104 10.5 7.81027 10.421 7.66962 10.2803C7.52897 10.1397 7.44995 9.94891 7.44995 9.75C7.44995 9.55109 7.52897 9.36032 7.66962 9.21967C7.81027 9.07902 8.00104 9 8.19995 9L17.2 9C17.3989 9 17.5896 9.07902 17.7303 9.21967C17.8709 9.36032 17.95 9.55109 17.95 9.75C17.95 9.94891 17.8709 10.1397 17.7303 10.2803C17.5896 10.421 17.3989 10.5 17.2 10.5Z" fill="#B3B3B3"/>
</svg>