<svg xmlns="http://www.w3.org/2000/svg" width="24" height="24" viewBox="0 0 25 24" fill="none">
<path d="M2.82032 10.8319C3.04179 8.97473 3.80139 7.22287 5.00563 5.79186C5.13888 5.63118 5.30419 5.50009 5.491 5.40695C5.67781 5.31382 5.882 5.2607 6.09051 5.251C6.29902 5.24129 6.50726 5.27521 6.70192 5.35058C6.89657 5.42596 7.07335 5.54113 7.22094 5.68874L9.81501 8.33811C10.0648 8.58736 10.2179 8.9173 10.2469 9.269C10.276 9.62071 10.179 9.97128 9.97344 10.2581C9.81772 10.479 9.70044 10.7247 9.62657 10.9847C9.6031 11.0614 9.55566 11.1286 9.4912 11.1763C9.42674 11.2241 9.34866 11.2499 9.26844 11.25L3.19344 11.25C3.14051 11.2501 3.08815 11.2389 3.03982 11.2174C2.99149 11.1958 2.94828 11.1642 2.91304 11.1247C2.87779 11.0852 2.85131 11.0387 2.83533 10.9882C2.81935 10.9377 2.81423 10.8844 2.82032 10.8319ZM13.3803 2.25561C13.1731 2.23754 12.9645 2.26276 12.7675 2.32965C12.5706 2.39654 12.3898 2.50365 12.2364 2.64418C12.0831 2.78471 11.9607 2.95558 11.877 3.14595C11.7932 3.33631 11.75 3.54201 11.75 3.74999V7.5628C11.7474 7.91659 11.8711 8.25971 12.0987 8.53053C12.3264 8.80134 12.6432 8.98208 12.9922 9.0403C13.6493 9.14871 14.2517 9.47271 14.7044 9.96123C15.1571 10.4498 15.4343 11.075 15.4924 11.7385C15.5505 12.402 15.3862 13.0659 15.0254 13.6257C14.6645 14.1855 14.1277 14.6093 13.4994 14.8303C13.4263 14.8572 13.3631 14.9058 13.3185 14.9697C13.2739 15.0336 13.25 15.1096 13.25 15.1875L13.25 21.3028C13.2497 21.3559 13.2606 21.4085 13.2821 21.457C13.3035 21.5056 13.3351 21.549 13.3746 21.5845C13.4141 21.6199 13.4608 21.6466 13.5113 21.6627C13.5619 21.6787 13.6154 21.6839 13.6681 21.6778C16.008 21.3889 18.1648 20.2647 19.7416 18.512C21.3185 16.7593 22.2092 14.496 22.25 12.1387C22.3203 7.04905 18.4241 2.70749 13.3803 2.25561ZM11.4922 14.8275C11.073 14.6779 10.6923 14.437 10.3777 14.1221C10.0631 13.8072 9.82255 13.4262 9.67344 13.0069C9.64788 12.9325 9.5999 12.8679 9.53611 12.8219C9.47231 12.7759 9.39584 12.7508 9.31719 12.75L3.19251 12.75C3.1395 12.7496 3.08703 12.7606 3.03854 12.782C2.99006 12.8034 2.94667 12.8349 2.91123 12.8743C2.8758 12.9137 2.84912 12.9602 2.83297 13.0107C2.81681 13.0612 2.81154 13.1145 2.81751 13.1672C3.08011 15.3341 4.0616 17.3505 5.60508 18.894C7.14856 20.4375 9.16492 21.4189 11.3319 21.6815C11.3846 21.6875 11.4379 21.6822 11.4884 21.6661C11.5389 21.6499 11.5853 21.6233 11.6248 21.5878C11.6642 21.5524 11.6956 21.509 11.7171 21.4605C11.7385 21.412 11.7494 21.3596 11.7491 21.3065L11.7491 15.1875C11.7492 15.1082 11.7245 15.0308 11.6785 14.9662C11.6324 14.9017 11.5672 14.8531 11.4922 14.8275Z" fill="#B3B3B3"/>
</svg>