<svg width="303" height="240" viewBox="0 0 303 240" fill="none" xmlns="http://www.w3.org/2000/svg">
<path d="M151.484 119.984L151.484 0C166.968 0 182.305 2.997 196.65 8.82566L151.484 119.984Z" fill="#277C78"/>
<path d="M151.484 119.984L196.65 8.82562C258.041 33.7702 287.587 103.759 262.643 165.15C237.698 226.541 167.709 256.087 106.318 231.142C79.4301 220.217 57.4134 199.916 44.3473 174.001L151.484 119.984Z" fill="#82C9D7"/>
<path d="M151.484 119.984L44.3472 174.001C25.2968 136.217 27.5577 91.1916 50.2975 55.5058L151.484 119.984Z" fill="#F2CDAC"/>
<path d="M151.484 119.984L50.2975 55.5058C72.3286 20.932 110.488 0 151.484 0V119.984Z" fill="#626070"/>
<circle cx="151.5" cy="120" r="81" fill="white"/>
<circle opacity="0.25" cx="151.25" cy="119.75" r="93.7501" fill="white"/>
<path d="M120.5 119.32C117.726 119.32 115.476 118.765 113.748 117.656C112.02 116.536 111.028 114.813 110.772 112.488L115.636 112.392C115.892 113.448 116.441 114.253 117.284 114.808C118.137 115.352 119.204 115.624 120.484 115.624C121.252 115.624 121.929 115.501 122.516 115.256C123.113 115 123.582 114.659 123.924 114.232C124.265 113.795 124.436 113.299 124.436 112.744C124.436 111.891 124.164 111.256 123.62 110.84C123.076 110.413 122.238 110.072 121.108 109.816L117.316 109C115.556 108.648 114.142 107.949 113.076 106.904C112.02 105.848 111.481 104.435 111.46 102.664C111.449 101.213 111.838 99.96 112.628 98.904C113.428 97.8373 114.51 97.016 115.876 96.44C117.252 95.864 118.793 95.576 120.5 95.576C122.249 95.576 123.758 95.8907 125.028 96.52C126.308 97.1387 127.289 97.976 127.972 99.032C128.665 100.077 129.001 101.235 128.98 102.504L124.26 102.584C124.11 101.56 123.769 100.755 123.236 100.168C122.702 99.5813 121.817 99.288 120.58 99.288C119.94 99.288 119.369 99.3573 118.868 99.496C118.366 99.6347 117.934 99.832 117.572 100.088C117.209 100.333 116.932 100.627 116.74 100.968C116.558 101.309 116.468 101.693 116.468 102.12C116.468 102.792 116.692 103.325 117.14 103.72C117.598 104.104 118.457 104.461 119.716 104.792L123.444 105.704C125.545 106.205 127.06 107.064 127.988 108.28C128.926 109.496 129.396 110.973 129.396 112.712C129.396 114.045 129.028 115.208 128.292 116.2C127.566 117.192 126.537 117.96 125.204 118.504C123.87 119.048 122.302 119.32 120.5 119.32ZM118.5 92.552H122.548V96.712H118.5V92.552ZM118.42 117.896H122.452V122.056H118.42V117.896ZM132.521 102.984C132.521 101.32 132.91 99.9387 133.689 98.84C134.478 97.7413 135.539 96.92 136.873 96.376C138.206 95.8213 139.689 95.544 141.321 95.544C143.049 95.544 144.585 95.768 145.929 96.216C147.283 96.664 148.35 97.3467 149.129 98.264C149.907 99.1813 150.297 100.344 150.297 101.752C150.297 102.893 149.966 103.901 149.305 104.776C148.643 105.64 147.566 106.328 146.073 106.84C146.926 107.075 147.715 107.432 148.441 107.912C149.166 108.392 149.747 109.005 150.185 109.752C150.622 110.499 150.841 111.395 150.841 112.44C150.841 113.571 150.59 114.568 150.089 115.432C149.587 116.296 148.894 117.021 148.009 117.608C147.123 118.195 146.099 118.632 144.937 118.92C143.774 119.208 142.531 119.352 141.209 119.352C139.353 119.341 137.769 119.037 136.457 118.44C135.155 117.832 134.153 116.968 133.449 115.848C132.755 114.728 132.398 113.395 132.377 111.848H136.873C137.097 113.16 137.609 114.109 138.409 114.696C139.209 115.283 140.158 115.576 141.257 115.576C142.217 115.576 143.038 115.437 143.721 115.16C144.414 114.883 144.942 114.499 145.305 114.008C145.678 113.507 145.865 112.936 145.865 112.296C145.865 111.635 145.673 111.064 145.289 110.584C144.915 110.104 144.393 109.731 143.721 109.464C143.049 109.187 142.281 109.037 141.417 109.016L139.209 108.936V105.224L141.193 105.112C142.025 105.08 142.75 104.925 143.369 104.648C143.987 104.371 144.467 104.003 144.809 103.544C145.161 103.075 145.337 102.547 145.337 101.96C145.337 101.395 145.161 100.904 144.809 100.488C144.457 100.072 143.971 99.7467 143.353 99.512C142.734 99.2773 142.025 99.16 141.225 99.16C140.489 99.16 139.811 99.2827 139.193 99.528C138.574 99.7733 138.067 100.179 137.673 100.744C137.278 101.299 137.049 102.045 136.985 102.984H132.521ZM153.708 102.984C153.708 101.32 154.098 99.9387 154.876 98.84C155.666 97.7413 156.727 96.92 158.06 96.376C159.394 95.8213 160.876 95.544 162.508 95.544C164.236 95.544 165.772 95.768 167.116 96.216C168.471 96.664 169.538 97.3467 170.316 98.264C171.095 99.1813 171.484 100.344 171.484 101.752C171.484 102.893 171.154 103.901 170.492 104.776C169.831 105.64 168.754 106.328 167.26 106.84C168.114 107.075 168.903 107.432 169.628 107.912C170.354 108.392 170.935 109.005 171.372 109.752C171.81 110.499 172.028 111.395 172.028 112.44C172.028 113.571 171.778 114.568 171.276 115.432C170.775 116.296 170.082 117.021 169.196 117.608C168.311 118.195 167.287 118.632 166.124 118.92C164.962 119.208 163.719 119.352 162.396 119.352C160.54 119.341 158.956 119.037 157.644 118.44C156.343 117.832 155.34 116.968 154.636 115.848C153.943 114.728 153.586 113.395 153.564 111.848H158.06C158.284 113.16 158.796 114.109 159.596 114.696C160.396 115.283 161.346 115.576 162.444 115.576C163.404 115.576 164.226 115.437 164.908 115.16C165.602 114.883 166.13 114.499 166.492 114.008C166.866 113.507 167.052 112.936 167.052 112.296C167.052 111.635 166.86 111.064 166.476 110.584C166.103 110.104 165.58 109.731 164.908 109.464C164.236 109.187 163.468 109.037 162.604 109.016L160.396 108.936V105.224L162.38 105.112C163.212 105.08 163.938 104.925 164.556 104.648C165.175 104.371 165.655 104.003 165.996 103.544C166.348 103.075 166.524 102.547 166.524 101.96C166.524 101.395 166.348 100.904 165.996 100.488C165.644 100.072 165.159 99.7467 164.54 99.512C163.922 99.2773 163.212 99.16 162.412 99.16C161.676 99.16 160.999 99.2827 160.38 99.528C159.762 99.7733 159.255 100.179 158.86 100.744C158.466 101.299 158.236 102.045 158.172 102.984H153.708ZM184.064 95.544C185.653 95.544 187.072 95.7947 188.32 96.296C189.578 96.7973 190.57 97.5333 191.296 98.504C192.021 99.464 192.384 100.648 192.384 102.056C192.384 103.24 192.058 104.248 191.408 105.08C190.757 105.912 189.957 106.552 189.008 107C189.712 107.149 190.4 107.501 191.072 108.056C191.754 108.6 192.314 109.272 192.752 110.072C193.189 110.861 193.408 111.699 193.408 112.584C193.408 113.96 193.018 115.155 192.24 116.168C191.472 117.181 190.384 117.965 188.976 118.52C187.578 119.064 185.941 119.336 184.064 119.336C182.208 119.336 180.581 119.064 179.184 118.52C177.786 117.965 176.698 117.181 175.92 116.168C175.141 115.155 174.752 113.96 174.752 112.584C174.752 111.699 174.97 110.861 175.408 110.072C175.845 109.272 176.4 108.6 177.072 108.056C177.744 107.501 178.437 107.149 179.152 107C178.202 106.552 177.397 105.912 176.736 105.08C176.074 104.248 175.744 103.24 175.744 102.056C175.744 100.648 176.106 99.464 176.832 98.504C177.568 97.5333 178.565 96.7973 179.824 96.296C181.082 95.7947 182.496 95.544 184.064 95.544ZM184.064 105.192C185.13 105.192 186.005 104.909 186.688 104.344C187.381 103.768 187.728 102.973 187.728 101.96C187.728 100.957 187.381 100.163 186.688 99.576C185.994 98.9893 185.12 98.696 184.064 98.696C183.018 98.696 182.149 98.9893 181.456 99.576C180.762 100.163 180.416 100.957 180.416 101.96C180.416 102.973 180.762 103.768 181.456 104.344C182.149 104.909 183.018 105.192 184.064 105.192ZM184.064 115.816C185.429 115.816 186.496 115.512 187.264 114.904C188.042 114.285 188.432 113.469 188.432 112.456C188.432 111.773 188.256 111.176 187.904 110.664C187.552 110.141 187.05 109.731 186.4 109.432C185.749 109.133 184.97 108.984 184.064 108.984C183.178 108.984 182.41 109.133 181.76 109.432C181.109 109.731 180.608 110.141 180.256 110.664C179.904 111.176 179.728 111.773 179.728 112.456C179.728 113.469 180.117 114.285 180.896 114.904C181.674 115.512 182.73 115.816 184.064 115.816Z" fill="#201F24"/>
<path d="M118.884 147.12C118.312 147.12 117.812 146.998 117.384 146.754C116.956 146.506 116.624 146.144 116.388 145.668C116.152 145.192 116.034 144.61 116.034 143.922C116.034 143.274 116.144 142.706 116.364 142.218C116.584 141.73 116.906 141.352 117.33 141.084C117.758 140.812 118.276 140.676 118.884 140.676C119.456 140.676 119.952 140.802 120.372 141.054C120.796 141.302 121.124 141.668 121.356 142.152C121.588 142.636 121.704 143.226 121.704 143.922C121.704 144.554 121.596 145.11 121.38 145.59C121.168 146.07 120.852 146.446 120.432 146.718C120.016 146.986 119.5 147.12 118.884 147.12ZM118.884 146.244C119.256 146.244 119.57 146.15 119.826 145.962C120.082 145.774 120.276 145.504 120.408 145.152C120.54 144.8 120.606 144.382 120.606 143.898C120.606 143.454 120.548 143.056 120.432 142.704C120.316 142.348 120.13 142.066 119.874 141.858C119.622 141.65 119.292 141.546 118.884 141.546C118.508 141.546 118.19 141.64 117.93 141.828C117.67 142.012 117.472 142.28 117.336 142.632C117.204 142.984 117.138 143.406 117.138 143.898C117.138 144.334 117.198 144.73 117.318 145.086C117.438 145.442 117.626 145.724 117.882 145.932C118.138 146.14 118.472 146.244 118.884 146.244ZM126.414 140.796V141.606H124.908V147H123.792V141.606H122.484V140.796H123.792V139.836C123.792 139.344 123.918 138.97 124.17 138.714C124.422 138.454 124.798 138.324 125.298 138.324H126.468L126.474 139.11H125.544C125.292 139.11 125.12 139.178 125.028 139.314C124.936 139.45 124.89 139.656 124.89 139.932V140.796H126.414ZM133.701 147.12C132.785 147.12 132.025 146.924 131.421 146.532C130.821 146.136 130.463 145.552 130.347 144.78L131.511 144.708C131.639 145.196 131.895 145.562 132.279 145.806C132.663 146.05 133.135 146.172 133.695 146.172C134.031 146.172 134.345 146.114 134.637 145.998C134.933 145.882 135.171 145.72 135.351 145.512C135.535 145.304 135.627 145.058 135.627 144.774C135.627 144.394 135.513 144.09 135.285 143.862C135.061 143.634 134.703 143.454 134.211 143.322L132.717 142.932C132.073 142.768 131.563 142.51 131.187 142.158C130.811 141.806 130.621 141.334 130.617 140.742C130.613 140.242 130.743 139.802 131.007 139.422C131.275 139.042 131.643 138.746 132.111 138.534C132.583 138.322 133.127 138.216 133.743 138.216C134.335 138.216 134.845 138.33 135.273 138.558C135.705 138.782 136.039 139.08 136.275 139.452C136.515 139.824 136.643 140.23 136.659 140.67L135.531 140.73C135.443 140.214 135.253 139.824 134.961 139.56C134.673 139.292 134.267 139.158 133.743 139.158C133.495 139.158 133.255 139.19 133.023 139.254C132.795 139.314 132.589 139.406 132.405 139.53C132.225 139.654 132.081 139.808 131.973 139.992C131.865 140.176 131.811 140.39 131.811 140.634C131.811 140.946 131.921 141.194 132.141 141.378C132.361 141.558 132.757 141.736 133.329 141.912L134.769 142.32C135.505 142.524 136.029 142.842 136.341 143.274C136.657 143.702 136.815 144.198 136.815 144.762C136.815 145.222 136.685 145.63 136.425 145.986C136.165 146.338 135.799 146.616 135.327 146.82C134.859 147.02 134.317 147.12 133.701 147.12ZM133.233 137.028H134.259V138.576H133.233V137.028ZM133.161 146.706H134.187V148.254H133.161V146.706ZM141.017 147.132C140.537 147.132 140.089 147.042 139.673 146.862C139.261 146.678 138.915 146.418 138.635 146.082C138.359 145.746 138.189 145.344 138.125 144.876H139.205C139.305 145.272 139.513 145.594 139.829 145.842C140.145 146.086 140.529 146.208 140.981 146.208C141.493 146.208 141.931 146.074 142.295 145.806C142.663 145.538 142.937 145.124 143.117 144.564C143.297 144.004 143.365 143.286 143.321 142.41C143.221 142.714 143.063 142.982 142.847 143.214C142.631 143.442 142.371 143.622 142.067 143.754C141.763 143.886 141.427 143.952 141.059 143.952C140.487 143.952 139.983 143.84 139.547 143.616C139.111 143.392 138.771 143.072 138.527 142.656C138.287 142.24 138.167 141.742 138.167 141.162C138.167 140.582 138.287 140.07 138.527 139.626C138.767 139.182 139.111 138.834 139.559 138.582C140.007 138.33 140.539 138.204 141.155 138.204C141.827 138.204 142.409 138.378 142.901 138.726C143.393 139.07 143.773 139.566 144.041 140.214C144.309 140.858 144.443 141.632 144.443 142.536C144.443 143.508 144.309 144.336 144.041 145.02C143.777 145.704 143.389 146.228 142.877 146.592C142.369 146.952 141.749 147.132 141.017 147.132ZM141.179 143.01C141.499 143.01 141.803 142.936 142.091 142.788C142.379 142.64 142.613 142.444 142.793 142.2C142.977 141.952 143.069 141.682 143.069 141.39C143.073 140.942 142.997 140.548 142.841 140.208C142.685 139.864 142.463 139.596 142.175 139.404C141.887 139.208 141.551 139.11 141.167 139.11C140.815 139.11 140.503 139.194 140.231 139.362C139.963 139.53 139.751 139.764 139.595 140.064C139.443 140.364 139.367 140.712 139.367 141.108C139.367 141.688 139.521 142.15 139.829 142.494C140.137 142.838 140.587 143.01 141.179 143.01ZM145.367 138.324H151.457V139.284C151.149 139.704 150.843 140.182 150.539 140.718C150.239 141.25 149.953 141.808 149.681 142.392C149.409 142.972 149.165 143.546 148.949 144.114C148.733 144.678 148.553 145.21 148.409 145.71C148.269 146.206 148.179 146.636 148.139 147H146.933C146.997 146.604 147.111 146.114 147.275 145.53C147.443 144.946 147.663 144.308 147.935 143.616C148.207 142.92 148.535 142.202 148.919 141.462C149.303 140.722 149.743 139.996 150.239 139.284H145.367V138.324ZM153.42 138.324H158.598L158.568 139.284H154.368L154.146 142.086C154.434 141.818 154.748 141.628 155.088 141.516C155.432 141.4 155.804 141.342 156.204 141.342C156.728 141.342 157.21 141.45 157.65 141.666C158.094 141.878 158.45 142.194 158.718 142.614C158.986 143.03 159.12 143.546 159.12 144.162C159.12 144.762 158.99 145.284 158.73 145.728C158.47 146.172 158.104 146.518 157.632 146.766C157.16 147.01 156.606 147.132 155.97 147.132C155.434 147.132 154.938 147.038 154.482 146.85C154.026 146.662 153.634 146.4 153.306 146.064C152.982 145.728 152.744 145.342 152.592 144.906L153.552 144.504C153.696 144.832 153.876 145.124 154.092 145.38C154.312 145.636 154.572 145.836 154.872 145.98C155.172 146.124 155.512 146.196 155.892 146.196C156.508 146.196 157.002 146.018 157.374 145.662C157.75 145.302 157.938 144.814 157.938 144.198C157.938 143.814 157.85 143.48 157.674 143.196C157.498 142.908 157.26 142.684 156.96 142.524C156.664 142.364 156.336 142.284 155.976 142.284C155.74 142.284 155.52 142.306 155.316 142.35C155.112 142.39 154.91 142.47 154.71 142.59C154.51 142.71 154.3 142.892 154.08 143.136C154.056 143.148 154.038 143.154 154.026 143.154C154.014 143.15 153.994 143.142 153.966 143.13L153.03 142.836L153.42 138.324ZM164.953 147.078C164.617 147.078 164.345 147.032 164.137 146.94C163.933 146.848 163.775 146.724 163.663 146.568C163.555 146.412 163.481 146.234 163.441 146.034C163.405 145.83 163.387 145.62 163.387 145.404V138.084H164.479V145.296C164.479 145.608 164.539 145.842 164.659 145.998C164.783 146.154 164.955 146.24 165.175 146.256L165.511 146.262V146.982C165.419 147.01 165.323 147.032 165.223 147.048C165.123 147.068 165.033 147.078 164.953 147.078ZM168.138 140.796V147H167.064V140.796H168.138ZM168.162 138.33V139.482H167.028V138.33H168.162ZM170.16 147V140.796H171.228V141.696C171.4 141.424 171.636 141.186 171.936 140.982C172.236 140.778 172.626 140.676 173.106 140.676C173.33 140.676 173.558 140.714 173.79 140.79C174.026 140.866 174.242 140.98 174.438 141.132C174.634 141.284 174.786 141.47 174.894 141.69C175.086 141.386 175.346 141.142 175.674 140.958C176.002 140.77 176.372 140.676 176.784 140.676C177 140.676 177.226 140.71 177.462 140.778C177.698 140.842 177.916 140.958 178.116 141.126C178.32 141.29 178.486 141.52 178.614 141.816C178.742 142.108 178.806 142.484 178.806 142.944V147H177.69V143.052C177.69 142.676 177.63 142.386 177.51 142.182C177.39 141.974 177.232 141.828 177.036 141.744C176.844 141.66 176.638 141.618 176.418 141.618C176.226 141.618 176.022 141.656 175.806 141.732C175.59 141.808 175.406 141.936 175.254 142.116C175.102 142.296 175.026 142.542 175.026 142.854V147H173.922V142.728C173.922 142.484 173.856 142.28 173.724 142.116C173.596 141.952 173.434 141.828 173.238 141.744C173.046 141.66 172.854 141.618 172.662 141.618C172.45 141.618 172.236 141.66 172.02 141.744C171.808 141.828 171.628 141.962 171.48 142.146C171.336 142.326 171.264 142.562 171.264 142.854V147H170.16ZM181.743 140.796V147H180.669V140.796H181.743ZM181.767 138.33V139.482H180.633V138.33H181.767ZM186.929 141.606H185.531V145.464C185.531 145.684 185.553 145.846 185.597 145.95C185.645 146.05 185.723 146.114 185.831 146.142C185.943 146.17 186.095 146.184 186.287 146.184H186.965V146.928C186.889 146.956 186.773 146.98 186.617 147C186.465 147.02 186.275 147.03 186.047 147.03C185.619 147.03 185.287 146.972 185.051 146.856C184.815 146.74 184.649 146.568 184.553 146.34C184.461 146.112 184.415 145.832 184.415 145.5V141.606H183.407V140.796H184.445L184.715 138.99H185.531V140.79H186.929V141.606Z" fill="#696868"/>
</svg>
