<svg xmlns="http://www.w3.org/2000/svg" width="24" height="24" viewBox="0 0 25 24" fill="none">
<path d="M21.3 10.8328L21.3 19.5C21.3 19.8978 21.142 20.2793 20.8606 20.5607C20.5793 20.842 20.1978 21 19.8 21H16.05C15.6522 21 15.2706 20.842 14.9893 20.5607C14.708 20.2793 14.55 19.8978 14.55 19.5L14.55 15.75C14.55 15.5511 14.471 15.3603 14.3303 15.2197C14.1897 15.079 13.9989 15 13.8 15H10.8C10.6011 15 10.4103 15.079 10.2697 15.2197C10.129 15.3603 10.05 15.5511 10.05 15.75L10.05 19.5C10.05 19.8978 9.89195 20.2793 9.61065 20.5607C9.32934 20.842 8.94781 21 8.54999 21H4.79999C4.40216 21 4.02063 20.842 3.73933 20.5607C3.45802 20.2793 3.29999 19.8978 3.29999 19.5L3.29999 10.8328C3.29996 10.6252 3.34302 10.4199 3.42645 10.2298C3.50988 10.0397 3.63186 9.86895 3.78468 9.72843L11.2847 2.65218L11.295 2.64187C11.5711 2.39074 11.931 2.25159 12.3042 2.25159C12.6775 2.25159 13.0373 2.39074 13.3134 2.64187C13.3166 2.64554 13.3201 2.64898 13.3237 2.65218L20.8237 9.72843C20.975 9.86969 21.0954 10.0407 21.1774 10.2308C21.2594 10.4209 21.3011 10.6258 21.3 10.8328Z" fill="#B3B3B3"/>
</svg>