<svg xmlns="http://www.w3.org/2000/svg" width="24" height="24" viewBox="0 0 25 24" fill="none">
  <path d="M17.35 4.57594V3C17.35 2.60218 17.1919 2.22064 16.9106 1.93934C16.6293 1.65804 16.2478 1.5 15.85 1.5L8.34998 1.5C7.95215 1.5 7.57062 1.65804 7.28932 1.93934C7.00801 2.22064 6.84998 2.60218 6.84998 3V4.57594C6.00351 4.74962 5.24286 5.20995 4.69635 5.87926C4.14983 6.54857 3.8509 7.3859 3.84998 8.25L3.84998 18.75C3.84998 19.7446 4.24506 20.6984 4.94833 21.4017C5.65159 22.1049 6.60541 22.5 7.59998 22.5L16.6 22.5C17.5945 22.5 18.5484 22.1049 19.2516 21.4017C19.9549 20.6984 20.35 19.7446 20.35 18.75L20.35 8.25C20.3491 7.3859 20.0501 6.54857 19.5036 5.87926C18.9571 5.20995 18.1964 4.74962 17.35 4.57594ZM11.35 3L12.85 3V4.5H11.35V3ZM8.34998 3H9.84998V4.5H8.34998V3ZM12.85 17.25V18C12.85 18.1989 12.771 18.3897 12.6303 18.5303C12.4897 18.671 12.2989 18.75 12.1 18.75C11.9011 18.75 11.7103 18.671 11.5696 18.5303C11.429 18.3897 11.35 18.1989 11.35 18V17.25H10.6C10.4011 17.25 10.2103 17.171 10.0696 17.0303C9.92899 16.8897 9.84998 16.6989 9.84998 16.5C9.84998 16.3011 9.92899 16.1103 10.0696 15.9697C10.2103 15.829 10.4011 15.75 10.6 15.75H12.85C13.0489 15.75 13.2397 15.671 13.3803 15.5303C13.521 15.3897 13.6 15.1989 13.6 15C13.6 14.8011 13.521 14.6103 13.3803 14.4697C13.2397 14.329 13.0489 14.25 12.85 14.25H11.35C10.7532 14.25 10.1809 14.0129 9.75899 13.591C9.33703 13.169 9.09998 12.5967 9.09998 12C9.09998 11.4033 9.33703 10.831 9.75899 10.409C10.1809 9.98705 10.7532 9.75 11.35 9.75V9C11.35 8.80109 11.429 8.61032 11.5696 8.46967C11.7103 8.32902 11.9011 8.25 12.1 8.25C12.2989 8.25 12.4897 8.32902 12.6303 8.46967C12.771 8.61032 12.85 8.80109 12.85 9V9.75H13.6C13.7989 9.75 13.9897 9.82902 14.1303 9.96967C14.271 10.1103 14.35 10.3011 14.35 10.5C14.35 10.6989 14.271 10.8897 14.1303 11.0303C13.9897 11.171 13.7989 11.25 13.6 11.25H11.35C11.1511 11.25 10.9603 11.329 10.8196 11.4697C10.679 11.6103 10.6 11.8011 10.6 12C10.6 12.1989 10.679 12.3897 10.8196 12.5303C10.9603 12.671 11.1511 12.75 11.35 12.75H12.85C13.4467 12.75 14.019 12.9871 14.441 13.409C14.8629 13.831 15.1 14.4033 15.1 15C15.1 15.5967 14.8629 16.169 14.441 16.591C14.019 17.0129 13.4467 17.25 12.85 17.25ZM15.85 4.5H14.35V3H15.85V4.5Z" fill="#B3B3B3"/>
</svg>