<svg xmlns="http://www.w3.org/2000/svg" width="24" height="24" viewBox="0 0 25 24" fill="none">
  <path d="M12.0928 16.2131C12.1496 16.3502 12.1645 16.501 12.1357 16.6465C12.1068 16.792 12.0354 16.9257 11.9306 17.0306L8.93057 20.0306C8.86091 20.1004 8.7782 20.1557 8.68715 20.1934C8.5961 20.2312 8.49851 20.2506 8.39994 20.2506C8.30138 20.2506 8.20379 20.2312 8.11274 20.1934C8.02169 20.1557 7.93897 20.1004 7.86932 20.0306L4.86932 17.0306C4.76431 16.9257 4.69278 16.7921 4.6638 16.6465C4.63481 16.5009 4.64966 16.35 4.70648 16.2129C4.76329 16.0758 4.85951 15.9586 4.98296 15.8762C5.1064 15.7938 5.25152 15.7499 5.39994 15.75H7.64994L7.64994 4.50001C7.64994 4.3011 7.72896 4.11033 7.86961 3.96968C8.01027 3.82903 8.20103 3.75001 8.39994 3.75001C8.59886 3.75001 8.78962 3.82903 8.93027 3.96968C9.07093 4.11033 9.14994 4.3011 9.14994 4.50001L9.14994 15.75L11.3999 15.75C11.5483 15.75 11.6933 15.7941 11.8166 15.8765C11.9399 15.9589 12.036 16.0761 12.0928 16.2131ZM20.9306 6.96938L17.9306 3.96939C17.8609 3.89965 17.7782 3.84433 17.6872 3.80659C17.5961 3.76885 17.4985 3.74942 17.3999 3.74942C17.3014 3.74942 17.2038 3.76885 17.1127 3.80659C17.0217 3.84433 16.939 3.89965 16.8693 3.96939L13.8693 6.96938C13.7643 7.07428 13.6928 7.20797 13.6638 7.35353C13.6348 7.49909 13.6497 7.64999 13.7065 7.7871C13.7633 7.92422 13.8595 8.0414 13.983 8.1238C14.1064 8.2062 14.2515 8.25013 14.3999 8.25001H16.6499V19.5C16.6499 19.6989 16.729 19.8897 16.8696 20.0303C17.0103 20.171 17.201 20.25 17.3999 20.25C17.5989 20.25 17.7896 20.171 17.9303 20.0303C18.0709 19.8897 18.1499 19.6989 18.1499 19.5V8.25001L20.3999 8.25001C20.5484 8.25013 20.6935 8.2062 20.8169 8.1238C20.9404 8.0414 21.0366 7.92422 21.0934 7.7871C21.1502 7.64999 21.1651 7.49909 21.1361 7.35353C21.1071 7.20797 21.0356 7.07428 20.9306 6.96938Z" fill="#B3B3B3"/>
</svg>